# xmcd CD database file
# Copyright (C) 1993-1998 Ti Kan
# 
# Track frame offsets:
#     183
#     17375
#     35853
#     51730
#     69720
#     87078
#     110735
#     127980
#     143448
#     165768
# 
# Disc length: 2430 seconds
# 
# Revision: 1
# Processed by: cddbd v1.4b41PL1 Copyright (c) Steve Scherf et al.
# Submitted via: DiscPlay 4.0.4
# 
DISCID=81097c0a
DTITLE=John McVie's "Gotta Band" With Lola Thomas - John McVie's "Gotta Band
DTITLE=" With Lola Thomas
DYEAR=1900
DGENRE=
TTITLE0=Evidence
TTITLE1=Now I Know
TTITLE2=Lost What You Had
TTITLE3=Shot Down By Love
TTITLE4=Step Aside
TTITLE5=You Left Me Lonely
TTITLE6=The Bigger The Love
TTITLE7=All That I was Guilty Of...
TTITLE8=One More Time With Feeling
TTITLE9=The Way I Do
EXTD=
EXTT0=
EXTT1=
EXTT2=
EXTT3=
EXTT4=
EXTT5=
EXTT6=
EXTT7=
EXTT8=
EXTT9=
PLAYORDER=
